<svg xmlns="http://www.w3.org/2000/svg" viewBox="0 0 512 514"><defs><style>.prefix__a{fill:#fff}</style></defs><path d="M437 514c-4.922 0-9.648-3.186-12.48-8.759L342 342.936V19.668C342 8.806 348.716 0 357 0h80c8.284 0 15 8.806 15 19.668v474.11c0 8.16-3.621 15.771-9.402 18.798A11.964 11.964 0 01437 514zM75 514a12.179 12.179 0 01-6.45-1.912c-5.323-3.294-8.55-10.563-8.55-18.28V19.667C60 8.806 66.716 0 75 0h80c8.284 0 15 8.806 15 19.668v323.268L87.48 505.241C84.648 510.814 79.918 514 75 514z"/><path d="M497 514h-60c-8.284 0-15-8.806-15-19.668V19.668C422 8.806 428.716 0 437 0h60c8.284 0 15 8.806 15 19.668v474.664c0 10.862-6.716 19.668-15 19.668zM75 514H15c-8.284 0-15-8.806-15-19.668V19.668C0 8.806 6.716 0 15 0h60c8.284 0 15 8.806 15 19.668v474.664C90 505.194 83.284 514 75 514z"/><path class="prefix__a" d="M52 244c0 112.482 92.622 204 206.476 204l25.81-204-25.81-204C144.629 40 52 131.51 52 244z"/><path class="prefix__a" d="M464.476 244c0-112.484-92.622-204-206.476-204v408c113.847 0 206.476-91.511 206.476-204z"/><path d="M336.366 113.385c12.974 32.384 19.538 69.828 21.587 104.916h50.219a153.317 153.317 0 00-71.806-104.916zM102.782 218.3H153c2.048-35.074 8.609-72.521 21.586-104.915a153.322 153.322 0 00-71.804 104.916zM102.782 269.107a153.312 153.312 0 0071.802 104.914c-12.972-32.383-19.536-69.83-21.586-104.914zM336.366 374.02a153.319 153.319 0 0071.806-104.913h-50.219c-2.049 35.073-8.61 72.522-21.587 104.914zM262.847 257.76a5.389 5.389 0 104.846 5.362 5.127 5.127 0 00-4.846-5.362z"/><path d="M316.308 225.496v-26.962c0-32.133-23.036-58.789-52.074-59.518-29.956-.753-54.542 25.986-54.542 58.959v27.521H200V322h126v-96.504zm-48.462 52.626v22.433h-9.692v-22.433c-5.862-2.313-10.027-8.611-9.671-15.97.386-7.995 6.149-14.543 13.365-15.161 8.534-.732 15.69 6.744 15.69 16.034 0 6.98-4.063 12.876-9.692 15.097zm19.385-52.626h-48.462v-27.189c0-14.475 10.256-26.595 23.332-27.12 13.768-.555 25.13 11.677 25.13 26.788z"/></svg>